PathFileType	4	(X/Y/Z)	C:/Users/Carlo/Dropbox/Carlos/SARAH/CongressoMarcha2025/WorkshopOpenSim/C3D/Caso01/Walking 02.c3d.trc
DataRate	CameraRate	NumFrames	NumMarkers	Units	OrigDataRate	OrigDataStartFrame	OrigNumFrames
100.000000	100.000000	4	85	mm	100.000000	136	364
Frame#	Time	PELO			PELA			PELL			PELP			LFEO			LFEA			LFEL			LFEP			LTIO			LTIA			LTIL			LTIP			LFOO			LFOA			LFOL			LFOP			LTOO			LTOA			LTOL			LTOP			RFEO			RFEA			RFEL			RFEP			RTIO			RTIA			RTIL			RTIP			RFOO			RFOA			RFOL			RFOP			RTOO			RTOA			RTOL			RTOP			LASI			RASI			RPSI			LTHI			LKNE			LTIB			LANK			LHEE			LTOE			RTHI			RKNE			RTIB			RANK			RHEE			RTOE			LPSI			LHipAngles			LKneeAngles			LAbsAnkleAngle			LAnkleAngles			RHipAngles			RKneeAngles			RAnkleAngles			RAbsAnkleAngle			LPelvisAngles			RPelvisAngles			LFootProgressAngles			RFootProgressAngles			LHipPower			LKneePower			LAnklePower			RHipPower			RKneePower			RAnklePower			LGroundReactionForce			LNormalisedGRF			LAnkleForce			RAnkleForce			RKneeForce			LKneeForce			RHipForce			LHipForce			LGroundReactionMoment			LAnkleMoment			RAnkleMoment			RKneeMoment			LKneeMoment			RHipMoment			LHipMoment			
		X1	Y1	Z1	X2	Y2	Z2	X3	Y3	Z3	X4	Y4	Z4	X5	Y5	Z5	X6	Y6	Z6	X7	Y7	Z7	X8	Y8	Z8	X9	Y9	Z9	X10	Y10	Z10	X11	Y11	Z11	X12	Y12	Z12	X13	Y13	Z13	X14	Y14	Z14	X15	Y15	Z15	X16	Y16	Z16	X17	Y17	Z17	X18	Y18	Z18	X19	Y19	Z19	X20	Y20	Z20	X21	Y21	Z21	X22	Y22	Z22	X23	Y23	Z23	X24	Y24	Z24	X25	Y25	Z25	X26	Y26	Z26	X27	Y27	Z27	X28	Y28	Z28	X29	Y29	Z29	X30	Y30	Z30	X31	Y31	Z31	X32	Y32	Z32	X33	Y33	Z33	X34	Y34	Z34	X35	Y35	Z35	X36	Y36	Z36	X37	Y37	Z37	X38	Y38	Z38	X39	Y39	Z39	X40	Y40	Z40	X41	Y41	Z41	X42	Y42	Z42	X43	Y43	Z43	X44	Y44	Z44	X45	Y45	Z45	X46	Y46	Z46	X47	Y47	Z47	X48	Y48	Z48	X49	Y49	Z49	X50	Y50	Z50	X51	Y51	Z51	X52	Y52	Z52	X53	Y53	Z53	X54	Y54	Z54	X55	Y55	Z55	X56	Y56	Z56	X57	Y57	Z57	X58	Y58	Z58	X59	Y59	Z59	X60	Y60	Z60	X61	Y61	Z61	X62	Y62	Z62	X63	Y63	Z63	X64	Y64	Z64	X65	Y65	Z65	X66	Y66	Z66	X67	Y67	Z67	X68	Y68	Z68	X69	Y69	Z69	X70	Y70	Z70	X71	Y71	Z71	X72	Y72	Z72	X73	Y73	Z73	X74	Y74	Z74	X75	Y75	Z75	X76	Y76	Z76	X77	Y77	Z77	X78	Y78	Z78	X79	Y79	Z79	X80	Y80	Z80	X81	Y81	Z81	X82	Y82	Z82	X83	Y83	Z83	X84	Y84	Z84	X85	Y85	Z85	

137	1.36	129.4618225097657	944.9628906250005	233.2193145751954	131.6658782958985	942.7785034179692	104.3302154541016	0.6168212890625002	948.943969726563	230.9485473632814	133.4802246093751	1073.809326171875	231.1043548583986	38.16830825805665	570.1767578125002	52.18583297729495	110.4162139892579	743.4700927734377	-321.6962280273439	-373.0448303222657	625.247009277344	-1.750911712646485	65.04106140136722	946.972290039063	232.0223846435548	41.75857162475587	140.6981201171876	116.4351501464844	72.14929199218753	79.87862396240237	-291.8147888183595	-370.9826660156251	132.8267822265626	86.88273620605472	38.336971282959	550.0019531250002	55.20393371582034	26.81475639343263	119.9479598999024	-37.356746673584	28.72042083740236	337.4754638671876	-46.825740814209	-190.9167785644532	121.8914871215821	-36.52798080444337	27.7272243499756	129.4092864990235	180.1775512695313	26.51060485839845	116.7942123413087	-109.868148803711	27.14582443237306	189.3033599853516	-113.0244750976563	-46.06656646728517	117.4420547485352	-109.591896057129	26.8147602081299	119.947982788086	-37.35672760009767	185.0109863281251	517.2285766601565	292.1897583007814	168.1239624023438	459.832946777344	-133.3437194824219	-244.2842102050782	528.2841796875002	307.7348937988282	193.8826141357423	942.9533691406255	234.4162597656251	181.2248077392579	94.33052825927737	434.5513610839846	217.9437103271486	-41.44507598876955	32.19415283203126	-243.4082794189454	86.03001403808597	398.6005859375002	184.841293334961	498.274597167969	298.5703430175782	202.8289489746095	74.65341949462893	281.5671997070314	199.5413818359376	291.9984436035157	273.2797241210939	-14.43426513671876	70.98284149169925	271.4898376464845	192.6202087402345	82.7785339355469	498.7034301757815	206.2318267822267	71.9450378417969	209.1884765625001	205.1359710693361	144.3933715820313	206.4259796142579	133.8107452392579	70.72151184082034	205.8293609619142	202.8289184570314	74.6534118652344	281.5671997070314	25.24472045898439	1044.503173828125	182.5996551513672	241.3409881591798	1037.826171875	186.4081573486329	176.3009185791016	1044.5927734375	379.7036437988282	-58.34973144531253	777.0256958007817	129.4088897705079	-18.83875274658204	577.811218261719	44.70849990844728	-25.69778251647951	337.5216674804689	82.09162139892581	-3.617040634155275	139.8327636718751	113.1862564086915	41.41217041015626	98.16532897949224	180.1591491699219	36.41323852539064	95.21860504150393	-43.02408599853517	301.8686828613282	792.3175659179692	250.4485321044923	241.9547882080079	515.7620849609377	290.1277465820314	255.0965423583986	366.4544067382814	349.4645080566407	227.5502471923829	95.23606872558597	438.4733886718752	183.5532226562501	61.90786361694339	515.7268676757815	193.3219604492189	57.59330368041995	290.1194152832032	63.64979171752933	1044.875244140625	373.595916748047	-2.519045591354371	8.29019927978516	26.37923622131349	9.054543495178226	-2.068952083587647	33.17767715454103	0	0	6.019580364227298	1.415058732032776	-4.378310680389406	6.03726959228516	-0.7063363194465639	3.014812707901003	-6.775669097900394	-0.2500852346420289	-7.377611637115482	10.89501380920411	-0.06808749586343768	2.187321662902833	16.47884941101075	0	0	16.46650123596192	1.786096453666688	0.9800229668617253	0.940402209758759	-1.786096453666688	-0.9800229668617253	0.940402209758759	-0.5014626979827883	-0.2401017248630525	-87.50958251953128	-0.8669335246086125	-2.689903974533082	-87.8570251464844	0	-0.05030970647931102	0	0	-0.6795478463172915	0	0	-0.01579085923731328	0	0	-0.0784520357847214	0	0	-0.01879906095564366	0	0	0.01467647124081851	0	nan	nan	nan	nan	nan	nan	0.04571513831615449	-0.1331912279129029	-0.3565476834774018	0.001232812996022404	-0.003746216418221595	-0.1463107317686081	0.02403790503740312	0.6019726395606997	-0.07734387367963794	0.05962136015295985	0.9048376083374028	-0.4352842867374422	0.06638758629560473	1.405869245529175	0.1751989722251893	0.2561062574386598	1.493750214576722	0.1706944257020951	nan	nan	nan	4.736951818785279e-16	6.912282466888431	-35.25901031494142	-1.296740526643501e-15	1.347635746002198	-12.91661739349366	-6.491391181945804	1.167175650596619	-40.50092697143556	27.56452369689943	6.290346622467045	-97.46628570556646	-30.08083724975587	3.514463424682619	-44.2437210083008	97.23846435546881	-20.91051292419434	116.6870880126954	
138	1.37	129.0369873046876	941.9604492187505	216.6067504882814	132.0788116455079	939.2241210937505	87.74523925781253	0.2143707275390626	946.080932617188	213.4783477783204	133.2217864990235	1070.7919921875	213.9698486328126	39.33775711059572	567.0170898437502	36.43016815185548	111.1456146240235	739.2913208007815	-337.5095520019532	-371.5998535156251	620.3233032226565	-17.92420959472657	64.62776184082034	944.0392456054692	214.9808959960939	40.73011016845705	133.7711944580079	68.63885498046878	59.77466583251956	103.1681213378907	-343.8328552246095	-372.8732299804689	131.0373229980469	49.74488830566409	39.40312576293947	546.6733398437502	37.94257736206056	25.74324035644533	124.2554168701172	-86.25039672851565	28.0002784729004	341.8934020996095	-79.91601562500003	-191.9848022460938	126.4840927124024	-85.24385833740237	26.68446350097658	117.911003112793	131.3968963623047	25.42950248718263	126.3702545166016	-158.7994842529297	26.18184661865236	198.916229248047	-156.6879882812501	-47.14650726318361	127.1131439208985	-158.4639739990235	25.74324035644533	124.2554168701172	-86.25038909912112	184.5191802978516	515.4276123046877	284.533660888672	169.6429443359376	449.4574279785159	-139.8050537109376	-244.8241729736329	526.5386962890627	297.8579711914064	193.4461517333986	939.8818359375005	218.2325744628907	180.4732971191407	94.7406921386719	433.8053894042971	219.0538635253907	-47.59381103515626	33.71517944335939	-244.1634216308595	85.46596527099612	396.1573486328127	184.3379211425782	496.5795898437502	291.221405029297	202.7931365966798	74.37331390380862	281.0144042968751	199.1178588867189	291.6692199707032	271.6690673828126	-14.41575622558594	70.2255783081055	269.9947814941407	191.6070709228516	83.5187911987305	498.0618591308596	206.5218048095704	71.324821472168	208.6652984619142	205.2967224121095	143.7568054199219	205.5501861572267	134.1188354492188	69.94224548339847	204.9920959472657	202.7931213378907	74.37331390380862	281.0144348144532	25.26666831970216	1041.404663085938	164.8849639892579	241.3325042724611	1034.49365234375	170.1320495605469	175.0397949218751	1042.1806640625	363.0224609375001	-58.24390792846683	773.358764648438	112.753288269043	-17.69181823730469	574.4147949218752	28.88693428039552	-26.09107208251955	333.0576171875001	50.76763153076175	-4.721497535705568	133.4707641601563	66.56253051757815	40.32746887207033	86.86918640136722	130.1590881347657	35.33800506591798	100.2150268554688	-92.60203552246097	301.307098388672	789.7479858398442	237.7918701171876	241.4727020263673	513.9536132812502	282.7661132812501	254.4468536376954	365.6113586425782	344.5747375488282	226.7806396484376	95.75210571289065	437.9109497070315	182.6344909667969	62.37849044799808	515.446716308594	193.2591400146486	57.40148925781253	289.8601989746095	62.40565109252933	1042.527465820313	356.1515197753907	-2.407070875167848	7.869352817535404	26.43117141723634	8.047251701354984	-4.338690757751467	28.78977966308595	0	0	5.922113418579103	1.048834085464478	-2.851018190383912	5.929489135742189	-0.8340123891830449	3.075648784637453	-7.686921119689945	-0.283252239227295	-7.361767292022709	10.67425155639649	-0.06358374655246737	2.166363716125489	17.13985443115235	0	0	17.1272258758545	1.860079526901246	1.352650403976441	1.172550916671753	-1.860079526901246	-1.352650403976441	1.172550916671753	-0.5939272642135622	-0.2476681321859361	-91.66970825195315	-0.9693836569786076	-2.947651386260987	-87.58721923828128	0	-0.0421823486685753	0	0	-1.059159398078919	0	0	-0.01523652393370867	0	0	-0.07958769053220752	0	0	-0.01232835929840804	0	0	0.01374652888625861	0	nan	nan	nan	nan	nan	nan	0.03645179420709611	-0.1777407824993134	-0.3584309220314027	0.0006402535364031794	-0.003419967135414483	-0.1476360857486725	0.01999393105506898	0.6179214715957644	-0.07482887804508212	0.0559986047446728	0.9574847817420964	-0.5061124563217165	0.05702913552522662	1.460605025291443	0.1896575093269349	0.2458894252777101	1.628842115402223	0.15831758081913	nan	nan	nan	9.710750990281806e-16	5.552280426025392	-33.04465866088869	3.611925569917874e-16	1.071138620376587	-11.98142147064209	-4.687552452087404	0.9028105139732365	-44.42911529541017	26.95444488525392	5.090302944183351	-147.651351928711	-25.3944435119629	3.013879776000978	-48.2837829589844	84.45911407470706	-21.46032142639161	181.1688995361329	
139	1.38	128.6016387939454	938.7080688476567	199.8853759765626	132.4810791015626	935.4295043945317	71.05902099609378	-0.1947326660156251	942.9086303710942	195.8999328613282	132.9002838134766	1067.5244140625	196.7365264892579	40.44028091430665	563.2857666015627	21.0276222229004	109.8297576904297	734.3234863281252	-353.5288391113282	-370.6334838867189	613.984069824219	-31.97605514526369	64.20597839355472	940.8264160156255	197.8309020996095	39.53981018066408	128.4895324707032	21.58811187744141	47.06893920898439	127.9398422241212	-392.740661621094	-374.7883300781251	129.3379058837891	14.05786609649659	40.39802932739259	542.8858642578127	21.05392456054688	24.42560195922853	129.9973602294922	-133.573471069336	27.08033370971681	346.6354064941407	-111.8381500244141	-193.2973022460939	132.5305328369141	-132.2293090820313	25.51008224487306	108.2476043701172	83.07666015625003	24.06407737731935	137.2472839355469	-205.7901763916017	24.94898414611818	209.4599609375001	-198.5450744628907	-48.51021575927737	138.0916748046876	-205.3421325683595	24.42556762695314	129.9973602294922	-133.5734558105469	184.0160675048829	513.5164184570315	276.3896789550782	171.3834381103516	439.3425903320315	-146.6385803222657	-245.3718414306642	524.5477294921877	287.2779846191407	192.9972686767579	936.5895996093755	201.9397735595704	179.6496124267579	95.31070709228518	433.025329589844	220.0828857421876	-54.014030456543	35.46624755859376	-245.0074615478517	85.01651000976565	393.7026062011721	183.8205261230469	494.7879333496096	283.4042968750001	202.7557067871095	74.08206176757815	280.4686279296876	198.6796417236329	291.3104248046876	269.8119201660157	-14.38793945312501	69.41641235351565	268.4179992675782	190.4931030273438	84.49415588378909	497.4007873535159	206.8432464599611	70.61137390136722	208.1579437255861	205.4845581054689	143.0208282470704	204.6057128906251	134.4620208740235	69.05615234375003	204.1410675048829	202.7557067871095	74.08206939697268	280.4686584472657	25.25909805297853	1038.00927734375	147.0727233886719	241.2532806396486	1030.96484375	153.7564239501954	173.7874908447266	1039.52197265625	346.2373046875001	-58.28490066528323	768.8927612304692	96.62654113769537	-16.65795135498048	570.3277587890627	13.66539192199708	-26.6288528442383	329.097869873047	20.11957168579102	-5.952580928802492	128.5826873779297	20.76131820678712	39.13290023803712	77.32082366943362	80.68566894531253	34.00703048706056	106.5876541137696	-140.6053771972657	300.8106384277345	787.0312500000005	224.9437713623048	240.9789581298829	512.0529785156252	274.9452209472657	253.7657928466798	364.7303161621095	339.368133544922	225.9380340576173	96.43279266357428	437.3115539550784	181.5947723388672	63.07014083862308	515.1467895507815	193.1951599121095	57.195182800293	289.5641479492189	61.16648864746097	1039.89208984375	338.5996704101564	-2.320438623428346	7.182895183563236	26.40603446960451	6.86546611785889	-6.295317649841312	24.46106719970705	0	0	5.805963039398195	0.6858469247817995	-1.333095312118531	5.80754613876343	-0.9486179947853093	3.106333255767824	-8.554428100585941	-0.3084333240985871	-7.314985752105716	10.56614303588868	-0.05326912924647334	2.118363142013551	17.80075454711915	0	0	17.78818130493165	1.910703539848329	1.725278973579408	1.400279760360718	-1.910703539848329	-1.725278973579408	1.400279760360718	-0.6985634565353396	-0.2853918075561525	-95.73279571533206	-1.075386166572571	-3.23162627220154	-87.25208282470706	0	-0.01394279580563308	0	0	-1.496158719062806	0	0	-0.0118840616196394	0	0	-0.08531714975833896	0	0	-0.003280476201325657	0	0	0.01212328765541316	0	nan	nan	nan	nan	nan	nan	0.02500842325389387	-0.22912634909153	-0.3487822711467744	-0.0003611532447393985	-0.00251951813697815	-0.1485344022512436	0.01288840454071761	0.6358129978179934	-0.06961305439472201	0.05374607443809512	0.9840333461761479	-0.5870119333267214	0.04272552207112314	1.520313858985902	0.2110282927751542	0.2272192686796189	1.741632580757142	0.1206583678722382	nan	nan	nan	-2.842170879512931e-16	3.869898319244387	-29.09222984313966	-5.62512992084805e-17	0.6407474279403689	-10.72884941101075	-1.802819371223451	0.4983377754688265	-48.20164489746097	25.88051414489748	3.571903467178347	-207.8009490966798	-17.56790161132813	2.194946765899659	-55.63793945312503	64.30466461181643	-20.77180862426759	266.223114013672	
140	1.39	128.1623687744141	935.2632446289067	183.0301971435547	132.8895874023438	931.4768066406255	54.24607849121097	-0.6034240722656252	939.4905395507817	178.1793670654297	132.5274658203126	1064.064697265625	179.4034729003907	41.44756317138673	559.1175537109377	5.841779232025148	106.6914749145508	728.7365722656252	-369.7720947265626	-370.0831909179689	606.539001464844	-44.22638320922853	63.7824401855469	937.3947753906255	180.5430450439454	38.26227188110353	124.7864074707032	-24.14710998535158	34.79116439819337	153.395248413086	-438.1221923828127	-376.6889953613282	127.5760345458985	-20.47503280639649	41.29832077026369	538.7667236328127	4.436628341674806	22.95175361633301	136.9076538085938	-178.8225555419922	26.03473472595216	351.5519104003907	-142.3557434082032	-194.7642211914064	139.7255096435547	-177.0023193359376	24.27417182922365	100.4194335937501	35.83613586425783	22.51095390319825	149.0703735351563	-250.3754425048829	23.5386085510254	220.6184692382814	-238.2198791503907	-50.06101989746097	150.0096588134766	-249.7687072753907	22.95175552368165	136.9076843261719	-178.8225402832032	183.5120544433594	511.5019531250002	267.6969299316407	173.4433746337891	429.5345458984377	-153.9504089355469	-245.9335937500001	522.2896118164065	275.8547363281251	192.5422668457032	933.1315917968755	185.5173645019532	178.7757415771485	96.08987426757818	432.1945495605471	221.0897674560548	-60.69636535644534	37.47463989257814	-245.9185943603517	84.69598388671878	391.1930236816409	183.3000793457032	492.9077453613284	275.0599670410157	202.7145233154298	73.76795196533206	279.9226074218751	198.2302856445314	290.9009704589845	267.6137695312501	-14.35354614257813	68.54057312011722	266.7897338867189	189.3096771240235	85.78008270263675	496.7044677734377	207.1827850341798	69.76394653320315	207.6620025634767	205.6880340576173	142.1416015625001	203.559051513672	134.8267822265626	68.02149200439456	203.2843780517579	202.7145080566407	73.76797485351565	279.9226074218751	25.23633766174318	1034.389038085938	129.1487884521485	241.1174621582032	1027.3017578125	137.2813568115235	172.5310211181641	1036.64599609375	329.3452758789064	-58.50427246093753	763.7796020507815	80.90103149414065	-15.75486373901368	565.7091064453127	-1.11767315864563	-27.27696609497072	325.6500549316407	-9.716377258300785	-7.234920978546146	125.092269897461	-23.74449348449708	37.89670181274415	69.49632263183597	32.31993103027345	32.5106658935547	114.0712203979493	-186.6075134277344	300.3878173828126	784.210571289063	211.8920288085939	240.4838104248048	510.0708007812502	266.6146850585939	253.0645904541017	363.835174560547	333.8074645996095	225.0440521240236	97.33117675781256	436.6614379882815	180.4674224853516	64.07156372070315	514.8222656250002	193.1302032470704	56.96440887451175	289.224578857422	59.92143630981448	1037.001953125	320.9343566894532	-2.263054132461549	6.260721206665043	26.3097438812256	5.61790180206299	-7.841923713684086	20.26270103454591	0	0	5.694459915161135	0.3466051816940309	0.08731557428836825	5.694462776184084	-1.053222298622132	3.100146055221559	-9.383041381835941	-0.3299131989479066	-7.231076240539554	10.58408260345459	-0.0400458835065365	2.056822299957276	18.44575309753419	0	0	18.43342971801759	1.940258860588075	2.102469682693482	1.612877607345582	-1.940258860588075	-2.102469682693482	1.612877607345582	-0.8112882971763615	-0.3479760587215425	-99.6470565795899	-1.183475732803345	-3.532997608184816	-86.82844543457034	0	0.03839887678623201	0	0	-1.945689082145692	0	0	-0.006605814676731828	0	0	-0.09619698673486715	0	0	0.008805858902633194	0	0	0.009803867898881439	0	nan	nan	nan	nan	nan	nan	0.01227637194097043	-0.2852055430412294	-0.3279545009136201	-0.001871080254204572	-0.0009880557190626864	-0.1488404870033265	0.001932598184794188	0.655538082122803	-0.06083257868885997	0.05322814732789996	0.9847570061683659	-0.6745720505714419	0.02295827306807042	1.583160042762757	0.2407208383083345	0.2028027176856996	1.825182795524598	0.0649593845009804	nan	nan	nan	6.631732228662035e-16	1.931442737579347	-23.4297275543213	5.965597990370468e-16	0.07326683402061465	-9.113849639892582	2.245211839675904	-0.02795119211077692	-51.6436462402344	24.49531555175783	1.77729618549347	-276.2683105468751	-5.814022064208986	1.048981785774231	-67.22933197021487	38.38047027587892	-19.13121223449708	366.4457092285157	
